<svg id="Capa_1" data-name="Capa 1" xmlns="http://www.w3.org/2000/svg" viewBox="0 0 148 107"><defs><style>.cls-1{font-size:19px;font-family:Ravie;}</style></defs><path d="M20.8,23.2c1.1,1.3,7.3,7.6,13.7,14C40.8,43.7,46,49.3,46,49.7c0,.5-5.4,6.2-12,12.8l-12,12,12,12c6.6,6.6,12,12.3,12,12.7s-6.1,6.9-13.5,14.5C19,127.5,18.9,127.5,22.1,127.8c2.9.3,4.3-.8,15.8-12.2l12.6-12.5,12,12.3,12,12.3,12.1-12.3,12.1-12.3L111,115.5c11.2,11.4,12.5,12.5,15.8,12.5h3.7l-14.3-14.3L102,99.5,114.5,87,127,74.5,114.5,62,102,49.5l14.2-14.2L130.5,21h-3.7c-3.4,0-4.6,1-15.9,12.5L98.6,46l-12-12.3L74.5,21.3l-12,12.3-12,12.3L38,33.4C26.9,22.4,25.1,21,22.1,21H18.7ZM119,74.5c0,.2-10,10.5-22.3,22.9L74.4,120,52.2,97.7C40,85.5,30,75.1,30,74.6s10-11,22.2-23.3L74.5,29,96.7,51.6C109,64,119,74.3,119,74.5Z" transform="translate(0 -21)"/><path d="M0,74c0,.6,2.8,1,6.5,1s6.5-.4,6.5-1-2.8-1-6.5-1S0,73.4,0,74Z" transform="translate(0 -21)"/><path d="M135,74c0,.6,2.8,1,6.5,1s6.5-.4,6.5-1-2.8-1-6.5-1S135,73.4,135,74Z" transform="translate(0 -21)"/><text class="cls-1" transform="translate(35.83789 59.4466)">ORIOL</text></svg>